<?xml version="1.0" encoding="utf-8"?>
<!-- Generator: Adobe Illustrator 27.0.0, SVG Export Plug-In . SVG Version: 6.00 Build 0)  -->
<svg version="1.1" id="Layer_1" xmlns="http://www.w3.org/2000/svg" xmlns:xlink="http://www.w3.org/1999/xlink" x="0px" y="0px"
	 viewBox="0 0 404 88.92" style="enable-background:new 0 0 404 88.92;" xml:space="preserve">
<style type="text/css">
	.st0{fill:#FFFFFF;}
</style>
<path class="st0" d="M124.99,31.3c3.69,0,7.08,2.05,8.48,5.68h5.34c-1.69-6.53-7.53-10.52-14.02-10.52
	c-8.13,0-14.26,6.33-14.26,14.36c0,7.53,5.63,14.36,14.51,14.36c6.78,0,12.12-4.44,13.77-10.32h-5.34c-1.1,2.7-3.94,5.44-8.48,5.49
	c-5.19,0-9.28-3.94-9.28-9.53c0-2.74,1.05-5.29,2.64-6.88C120.25,32.14,122.25,31.25,124.99,31.3 M159.35,26.46
	c9.13,0,14.47,7.08,14.47,14.36c0,7.28-5.34,14.31-14.47,14.31c-9.13,0-14.46-7.03-14.46-14.31v-0.05
	C144.88,33.54,150.22,26.46,159.35,26.46 M159.35,50.3c5.19,0,9.28-4.04,9.28-9.48c0-5.44-4.09-9.48-9.28-9.48
	c-5.19,0-9.28,4.04-9.28,9.48v0.05C150.07,46.26,154.16,50.3,159.35,50.3 M181.46,54.39h5.19V17.48h-5.19V54.39z M208.56,26.46
	c9.13,0,14.46,7.08,14.46,14.36c0,7.28-5.33,14.31-14.46,14.31c-9.13,0-14.47-7.03-14.47-14.31v-0.05
	C194.1,33.54,199.44,26.46,208.56,26.46 M208.56,50.3c5.19,0,9.28-4.04,9.28-9.48c0-5.44-4.09-9.48-9.28-9.48
	c-5.19,0-9.28,4.04-9.28,9.48v0.05C199.29,46.26,203.38,50.3,208.56,50.3 M253.27,27.26h5.19v23.99c0,4.74-1.2,7.78-3.19,10.07
	c-2.5,2.9-6.74,4.94-11.43,4.94c-7.68,0-12.17-4.49-13.46-9.03h5.98c0.6,1.2,1.64,2.3,2.99,3.14c1.64,1.1,3.49,1.45,4.69,1.45
	c4.54,0,9.23-3.34,9.23-9.43v-2.79c-1.6,3.04-4.89,5.58-9.78,5.58c-8.13,0-14.02-6.18-14.02-14.26c0-8.48,6.13-14.46,14.02-14.46
	c4.54,0,8.28,2.39,9.78,5.38V27.26z M250.72,47.61c1.6-1.65,2.6-3.99,2.65-6.64c0-2.14-0.7-4.59-2.2-6.43
	c-1.49-1.89-3.84-3.19-7.14-3.19c-5.14,0-9.37,3.84-9.37,9.43v0.05c0,5.09,3.64,9.52,9.37,9.52
	C246.78,50.35,249.08,49.3,250.72,47.61 M287.26,42.42c0,4.64-2.34,7.88-7.43,7.93c-5.34,0-7.23-3.49-7.23-8.38V27.26h-5.19v15.91
	c0,5.64,2.24,11.97,10.97,12.02c4.84,0.05,7.88-2.19,9.17-4.99v4.19h4.89V27.26h-5.19V42.42z M323.94,27.26h5.18v27.13h-5.18v-4.74
	c-1.9,3.64-5.79,5.54-10.08,5.54c-8.73,0-13.92-6.78-13.92-14.36c0-8.28,6.04-14.36,13.92-14.36c5.39,0,8.83,2.99,10.08,5.58V27.26z
	 M323.04,44.97c0.6-1.25,0.9-2.64,0.95-4.04c0.05-1.39-0.2-2.79-0.8-4.04c-1.3-3.14-4.34-5.59-8.68-5.59
	c-5.69,0-9.37,4.49-9.37,9.58v0.05c0.05,4.04,2.89,9.42,9.47,9.42C318.75,50.35,321.69,48.06,323.04,44.97 M344.34,31.25v-3.99
	h-4.88v27.13h5.18V39.73c0-5.39,2.55-8.08,7.44-8.08h0.35v-5.19C348.74,26.51,345.89,28.06,344.34,31.25 M386.02,17.48v36.91h-4.99
	v-4.74c-1.5,2.8-4.54,5.54-10.12,5.54c-8.53,0-13.92-6.58-13.92-14.41c0-8.43,6.09-14.32,13.82-14.32c5.54,0,8.93,3.09,10.03,5.24
	v-4.79v-9.43H386.02z M378.48,47.51c1.75-1.74,2.74-4.14,2.64-6.83c0-2.7-1.05-5.04-2.74-6.69c-1.7-1.7-4.04-2.7-6.69-2.7
	c-5.74,0-9.53,4.39-9.53,9.48v0.05c0.05,4.99,3.55,9.53,9.53,9.53C374.34,50.35,376.79,49.25,378.48,47.51 M8.55,77.43h20.48V64.63
	H14.79V14.79h27.03V2H8.55C4.94,2,2,4.94,2,8.55v62.33C2,74.49,4.94,77.43,8.55,77.43 M87.74,2H54.61v12.79H81.5v49.84H54.61v-7.91
	H41.82v30.2h12.79v-9.49h33.13c3.61,0,6.55-2.94,6.55-6.55V8.55C94.29,4.94,91.35,2,87.74,2 M402,23.17c0-3.18-2.56-5.67-5.77-5.67
	c-3.28,0-5.87,2.49-5.87,5.67c0,3.18,2.59,5.7,5.84,5.7C399.44,28.86,402,26.34,402,23.17 M391.81,23.17c0-2.49,1.9-4.53,4.35-4.53
	c2.52,0,4.39,2.04,4.39,4.56c0,2.49-1.87,4.53-4.32,4.49C393.71,27.69,391.81,25.69,391.81,23.17 M395.3,23.86h0.62
	c0.73,0,1.07,0.28,1.18,0.86c0.17,0.69,0.28,1.18,0.45,1.38h1.38c-0.1-0.21-0.24-0.52-0.41-1.38c-0.17-0.76-0.45-1.21-1-1.38v-0.07
	c0.65-0.21,1.17-0.66,1.17-1.35c0-0.55-0.24-0.97-0.59-1.21c-0.38-0.28-0.87-0.45-1.93-0.45c-0.93,0-1.66,0.1-2.18,0.17v5.67h1.31
	V23.86z M395.33,21.3c0.14-0.04,0.38-0.07,0.73-0.07c0.83,0,1.21,0.35,1.21,0.87c0,0.59-0.59,0.83-1.31,0.83h-0.62V21.3z"/>
</svg>
