<svg width="150" height="33" viewBox="0 0 150 33" fill="none" xmlns="http://www.w3.org/2000/svg">
<path d="M83.1879 26.3463V27.4527H80.3633V28.731H82.9705V29.7966H80.3633V31.1902H83.2198V32.2965H79.1745V26.3463H83.1879Z" fill="#001963"/>
<path d="M85.4918 29.2399C85.4722 29.2558 85.4536 29.2727 85.435 29.2886C84.5957 28.5865 83.9091 27.6167 83.9091 26.3472H85.1555C85.1555 27.2275 85.4988 27.8844 86.3239 28.5617C86.3115 28.5723 86.2999 28.5821 86.2866 28.5927L85.4918 29.2399Z" fill="#001963"/>
<path d="M87.2161 29.21C87.2001 29.2236 87.1823 29.2427 87.1654 29.2563L86.3727 29.9215C86.3544 29.9366 86.3404 29.9473 86.3239 29.9619C87.1436 30.6549 87.5002 31.3986 87.4922 32.2966H88.7386C88.7475 31.0095 88.0517 29.931 87.2161 29.21Z" fill="#001963"/>
<path fill-rule="evenodd" clip-rule="evenodd" d="M87.4048 26.3472C87.4048 27.2261 87.0716 27.8819 86.2711 28.558C86.259 28.5687 86.2478 28.5784 86.2349 28.589L85.4627 29.2351C85.4438 29.251 85.4257 29.2678 85.4076 29.2838C84.5967 29.9874 83.927 31.0308 83.927 32.2867H85.1365C85.1287 31.4114 85.4748 30.6857 86.2702 30.0086C86.2848 29.9962 86.2986 29.983 86.3141 29.9706L87.0863 29.3245C87.1026 29.3112 87.1181 29.297 87.1336 29.2829C87.948 28.5819 88.6143 27.6137 88.6143 26.3463H87.4048V26.3472Z" fill="#001963"/>
<path fill-rule="evenodd" clip-rule="evenodd" d="M94.5068 32.2965H93.2435L92.8665 31.0421H90.6851L90.308 32.2965H89.0696L90.9228 26.3463H92.6536L94.5068 32.2965ZM91.7754 27.4163L91.0071 29.9686H92.5436L91.7754 27.4163Z" fill="#001963"/>
<path d="M94.7825 30.0516V28.5836C94.7825 27.3041 95.6857 26.3463 97.0842 26.3463C98.498 26.3463 99.3383 27.2726 99.3383 28.5445H98.1913C98.1752 27.8305 97.7826 27.3983 97.0834 27.3983C96.3688 27.3983 95.9364 27.8772 95.9364 28.6464V29.9964C95.9364 30.7732 96.368 31.2521 97.0834 31.2445C97.7826 31.2521 98.1752 30.8208 98.1913 30.0983H99.3383C99.3383 31.3854 98.498 32.3041 97.0842 32.2964C95.6866 32.3041 94.7825 31.3464 94.7825 30.0516Z" fill="#001963"/>
<path d="M104.214 26.3463V27.4527H102.582V32.2965H101.384V27.4527H99.7519V26.3463H104.214Z" fill="#001963"/>
<path d="M110.407 28.1489V28.2588H109.249V28.1881C109.249 27.7078 108.909 27.3928 108.264 27.3928C107.728 27.3928 107.413 27.6602 107.421 28.0067C107.429 28.4631 107.98 28.5815 108.579 28.7313L108.768 28.7782C109.894 29.0617 110.54 29.5573 110.548 30.4939C110.556 31.6196 109.681 32.2965 108.421 32.2965C107.019 32.2965 106.089 31.5404 106.089 30.2027V30.195H107.247V30.2504C107.247 30.8958 107.711 31.2423 108.421 31.2423C108.989 31.2423 109.382 31.0141 109.382 30.5969C109.382 30.1644 109.043 30.0298 108.256 29.8331L108.067 29.7863C106.893 29.4951 106.263 29.0464 106.255 28.1021C106.248 27.0948 107.106 26.3463 108.287 26.3463C109.588 26.3463 110.407 27.1016 110.407 28.1489Z" fill="#001963"/>
<path d="M111.32 30.0516V28.5836C111.32 27.3041 112.223 26.3463 113.622 26.3463C115.036 26.3463 115.876 27.2726 115.876 28.5445H114.729C114.714 27.8305 114.32 27.3983 113.621 27.3983C112.906 27.3983 112.474 27.8772 112.474 28.6464V29.9964C112.474 30.7732 112.906 31.2521 113.621 31.2445C114.32 31.2521 114.713 30.8208 114.729 30.0983H115.876C115.876 31.3854 115.036 32.3041 113.622 32.2964C112.223 32.3049 111.32 31.3472 111.32 30.0516Z" fill="#001963"/>
<path d="M117.901 32.2965H116.703V26.3463H117.901V32.2965Z" fill="#001963"/>
<path d="M122.963 26.3463V27.4527H120.138V28.731H122.745V29.7966H120.138V31.1902H122.995V32.2965H118.948V26.3463H122.963Z" fill="#001963"/>
<path d="M127.307 26.3463V30.129L124.97 26.3463H123.822V32.2965H125.003V28.5129L127.34 32.2965H128.488V26.3463H127.307Z" fill="#001963"/>
<path d="M129.453 30.0516V28.5836C129.453 27.3041 130.356 26.3463 131.755 26.3463C133.169 26.3463 134.009 27.2726 134.009 28.5445H132.862C132.847 27.8305 132.453 27.3983 131.754 27.3983C131.039 27.3983 130.607 27.8772 130.607 28.6464V29.9964C130.607 30.7732 131.038 31.2521 131.754 31.2445C132.453 31.2521 132.846 30.8208 132.862 30.0983H134.009C134.009 31.3854 133.169 32.3041 131.755 32.2964C130.356 32.3049 129.453 31.3472 129.453 30.0516Z" fill="#001963"/>
<path d="M138.877 26.3463V27.4527H136.053V28.731H138.66V29.7966H136.053V31.1902H138.91V32.2965H134.864V26.3463H138.877Z" fill="#001963"/>
<path d="M143.778 28.1489V28.2588H142.62V28.1881C142.62 27.7078 142.281 27.3928 141.635 27.3928C141.099 27.3928 140.785 27.6602 140.792 28.0067C140.8 28.4631 141.351 28.5815 141.95 28.7313L142.139 28.7782C143.266 29.0617 143.912 29.5573 143.919 30.4939C143.927 31.6196 143.053 32.2965 141.793 32.2965C140.39 32.2965 139.461 31.5404 139.461 30.2027V30.195H140.619V30.2504C140.619 30.8958 141.084 31.2423 141.793 31.2423C142.36 31.2423 142.754 31.0141 142.754 30.5969C142.754 30.1644 142.415 30.0298 141.627 29.8331L141.438 29.7863C140.264 29.4951 139.634 29.0464 139.627 28.1021C139.619 27.0948 140.477 26.3463 141.659 26.3463C142.958 26.3463 143.778 27.1016 143.778 28.1489Z" fill="#001963"/>
<path d="M73.4036 30.8858C73.1948 30.8858 73.0154 30.8416 72.8654 30.7533C72.7154 30.665 72.6007 30.531 72.5213 30.3515C72.4419 30.1689 72.4022 29.9393 72.4022 29.6626C72.4022 29.3829 72.4433 29.1533 72.5257 28.9738C72.611 28.7942 72.7286 28.6602 72.8786 28.5719C73.0286 28.4836 73.2036 28.4395 73.4036 28.4395C73.6271 28.4395 73.8271 28.4895 74.0036 28.5896C74.183 28.6897 74.3241 28.831 74.427 29.0135C74.5329 29.196 74.5859 29.4124 74.5859 29.6626C74.5859 29.9099 74.5329 30.1248 74.427 30.3073C74.3241 30.4898 74.183 30.6326 74.0036 30.7356C73.8271 30.8357 73.6271 30.8858 73.4036 30.8858ZM72.0007 30.8504V27.574H72.6889V28.9561L72.6448 29.6582L72.658 30.3647V30.8504H72.0007ZM73.2845 30.3205C73.3992 30.3205 73.5006 30.294 73.5889 30.2411C73.68 30.1881 73.7521 30.113 73.805 30.0159C73.8609 29.9158 73.8888 29.798 73.8888 29.6626C73.8888 29.5242 73.8609 29.4065 73.805 29.3093C73.7521 29.2122 73.68 29.1371 73.5889 29.0841C73.5006 29.0312 73.3992 29.0047 73.2845 29.0047C73.1698 29.0047 73.0668 29.0312 72.9757 29.0841C72.8845 29.1371 72.8124 29.2122 72.7595 29.3093C72.7066 29.4065 72.6801 29.5242 72.6801 29.6626C72.6801 29.798 72.7066 29.9158 72.7595 30.0159C72.8124 30.113 72.8845 30.1881 72.9757 30.2411C73.0668 30.294 73.1698 30.3205 73.2845 30.3205Z" fill="#001963"/>
<path d="M75.2819 31.7424C75.1584 31.7424 75.0363 31.7233 74.9158 31.685C74.7952 31.6467 74.6967 31.5937 74.6202 31.526L74.8717 31.0359C74.9246 31.083 74.9849 31.1198 75.0525 31.1463C75.1231 31.1728 75.1922 31.186 75.2599 31.186C75.3569 31.186 75.4334 31.1625 75.4893 31.1154C75.5481 31.0712 75.601 30.9961 75.6481 30.8902L75.7716 30.5987L75.8245 30.5237L76.676 28.4748H77.3377L76.2657 30.9961C76.1892 31.1875 76.101 31.3376 76.001 31.4465C75.9039 31.5555 75.7951 31.632 75.6745 31.6762C75.5569 31.7203 75.426 31.7424 75.2819 31.7424ZM75.6878 30.9432L74.629 28.4748H75.3393L76.1598 30.4618L75.6878 30.9432Z" fill="#001963"/>
<path d="M46.0123 10.496C46.6997 10.4831 47.3744 10.6833 47.9442 11.0692C48.5139 11.4551 48.9509 12.0079 49.1955 12.6521H51.2011C50.8537 11.3855 50.0595 10.2884 48.966 9.56465C47.8725 8.84085 46.5541 8.53956 45.2557 8.71674C43.9573 8.89393 42.7672 9.53754 41.9065 10.528C41.0458 11.5185 40.5731 12.7885 40.576 14.102C40.59 15.4035 41.0692 16.6567 41.9264 17.6342C42.7837 18.6117 43.9622 19.2487 45.248 19.4293C46.5338 19.61 47.8416 19.3225 48.9339 18.6189C50.0263 17.9154 50.8307 16.8425 51.2011 15.5951H49.1955C48.932 16.219 48.4877 16.7493 47.9202 17.1174C47.3527 17.4854 46.688 17.6743 46.0123 17.6595C45.5452 17.6657 45.0818 17.5766 44.6502 17.3974C44.2186 17.2183 43.8279 16.953 43.5019 16.6176C43.1759 16.2823 42.9215 15.8839 42.754 15.4468C42.5866 15.0097 42.5096 14.543 42.5279 14.0751C42.508 13.1218 42.8545 12.1974 43.4958 11.4932C43.8208 11.1577 44.2132 10.8953 44.6471 10.7233C45.0809 10.5514 45.5463 10.4739 46.0123 10.496Z" fill="#001963"/>
<path d="M58.9173 8.6742C58.2035 8.65518 57.4933 8.7812 56.8293 9.04466C56.1654 9.30812 55.5616 9.70357 55.0541 10.2072C54.5467 10.7108 54.1462 11.3122 53.8768 11.9751C53.6074 12.6379 53.4746 13.3486 53.4865 14.0643C53.5309 15.4792 54.1228 16.8213 55.137 17.8064C56.1511 18.7915 57.5078 19.3424 58.92 19.3424C60.3322 19.3424 61.689 18.7915 62.7031 17.8064C63.7172 16.8213 64.3092 15.4792 64.3536 14.0643C64.3647 13.3484 64.2312 12.6376 63.9612 11.9747C63.6912 11.3117 63.2902 10.7104 62.7824 10.2069C62.2745 9.70336 61.6703 9.308 61.0061 9.0446C60.3419 8.7812 59.6314 8.65521 58.9173 8.6742ZM58.9173 17.6488C58.4537 17.6525 57.9941 17.5628 57.5657 17.3848C57.1374 17.2069 56.7492 16.9444 56.4241 16.613C56.099 16.2816 55.8438 15.8881 55.6735 15.4558C55.5032 15.0235 55.4214 14.5613 55.433 14.0967C55.433 13.6366 55.5234 13.181 55.699 12.7559C55.8747 12.3308 56.1321 11.9446 56.4567 11.6193C56.7812 11.2939 57.1665 11.0358 57.5906 10.8598C58.0146 10.6837 58.4691 10.5931 58.9281 10.5931C59.3871 10.5931 59.8416 10.6837 60.2656 10.8598C60.6897 11.0358 61.0749 11.2939 61.3995 11.6193C61.724 11.9446 61.9815 12.3308 62.1571 12.7559C62.3328 13.181 62.4232 13.6366 62.4232 14.0967C62.4341 14.5629 62.3511 15.0266 62.1792 15.46C62.0074 15.8934 61.7502 16.2877 61.4229 16.6192C61.0957 16.9507 60.7052 17.2128 60.2747 17.3897C59.8442 17.5666 59.3826 17.6547 58.9173 17.6488Z" fill="#001963"/>
<path d="M69.166 5.29457H67.2195V19.1957H69.166V5.29457Z" fill="#001963"/>
<path d="M77.4036 8.67419C76.6893 8.65444 75.9785 8.77991 75.3139 9.04304C74.6494 9.30616 74.0449 9.70149 73.5368 10.2052C73.0289 10.7089 72.6279 11.3105 72.3581 11.9738C72.0884 12.637 71.9555 13.3482 71.9674 14.0643C72.0118 15.4792 72.6037 16.8213 73.6178 17.8064C74.632 18.7915 75.9887 19.3424 77.4009 19.3424C78.8131 19.3424 80.1698 18.7915 81.184 17.8064C82.1981 16.8213 82.79 15.4792 82.8344 14.0643C82.8455 13.3488 82.7122 12.6385 82.4426 11.9759C82.1729 11.3134 81.7724 10.7123 81.2651 10.2089C80.7578 9.70542 80.1543 9.30995 79.4907 9.04622C78.8271 8.78248 78.1172 8.65594 77.4036 8.67419ZM77.4036 17.6488C76.9399 17.6525 76.4803 17.5628 76.052 17.3848C75.6237 17.2069 75.2354 16.9444 74.9103 16.613C74.5853 16.2816 74.33 15.8881 74.1597 15.4558C73.9895 15.0235 73.9077 14.5613 73.9192 14.0967C73.9192 13.6366 74.0096 13.181 74.1853 12.7559C74.3609 12.3308 74.6184 11.9446 74.9429 11.6193C75.2675 11.2939 75.6528 11.0358 76.0768 10.8598C76.5009 10.6837 76.9553 10.5931 77.4143 10.5931C77.8733 10.5931 78.3278 10.6837 78.7518 10.8598C79.1759 11.0358 79.5612 11.2939 79.8857 11.6193C80.2103 11.9446 80.4677 12.3308 80.6434 12.7559C80.819 13.181 80.9094 13.6366 80.9094 14.0967C80.9203 14.5629 80.8373 15.0266 80.6655 15.46C80.4936 15.8934 80.2364 16.2877 79.9092 16.6192C79.5819 16.9507 79.1914 17.2128 78.7609 17.3897C78.3304 17.5666 77.8688 17.6547 77.4036 17.6488Z" fill="#001963"/>
<path d="M94.191 10.7009C93.819 10.0617 93.2809 9.53559 92.6342 9.17869C91.9875 8.82179 91.2563 8.64743 90.5185 8.67417C87.5557 8.67417 85.2543 10.9272 85.2543 14.1182C85.2272 14.8238 85.3439 15.5275 85.5974 16.1863C85.8508 16.8451 86.2357 17.4451 86.7285 17.9496C87.2212 18.4542 87.8115 18.8527 88.4632 19.1207C89.1149 19.3887 89.8142 19.5206 90.5185 19.5083C91.2656 19.5381 92.0061 19.3568 92.6555 18.9852C93.3048 18.6135 93.8369 18.0664 94.191 17.4062V18.4842C94.2063 18.9482 94.1276 19.4105 93.9597 19.8431C93.7917 20.2757 93.5379 20.6697 93.2137 21.0012C92.8895 21.3327 92.5017 21.5949 92.0735 21.7719C91.6454 21.9489 91.1859 22.037 90.7228 22.0309C90.0977 22.0215 89.488 21.8346 88.9645 21.4919C88.4905 21.2074 88.1021 20.7994 87.8407 20.3115H85.5931C86.077 22.0201 87.7439 23.7126 90.6529 23.7126C91.4601 23.7235 92.2605 23.5634 93.0017 23.243C93.743 22.9226 94.4084 22.4489 94.9546 21.853C95.702 20.9906 96.1537 19.8425 96.1537 18.08V8.97602H94.2072L94.191 10.7009ZM93.2339 16.63C92.7359 17.1266 92.1018 17.4633 91.4122 17.5973C90.7226 17.7314 90.0089 17.6566 89.3618 17.3826C88.7148 17.1086 88.1638 16.6477 87.7789 16.0587C87.3941 15.4697 87.1928 14.7792 87.2008 14.0751C87.1884 13.607 87.2708 13.1413 87.4431 12.7061C87.6154 12.271 87.874 11.8753 88.2033 11.5433C88.5325 11.2112 88.9256 10.9495 89.3587 10.7742C89.7918 10.5988 90.2558 10.5133 90.7228 10.523C91.2336 10.4978 91.7432 10.5935 92.2102 10.8023C92.6773 11.0111 93.0888 11.3272 93.4114 11.725C93.9467 12.4174 94.2362 13.2691 94.2341 14.1452C94.2277 15.0713 93.8724 15.9608 93.2393 16.6354L93.2339 16.63Z" fill="#001963"/>
<path d="M106.945 14.6842C106.945 16.4306 106.064 17.6488 104.155 17.6703C102.149 17.6703 101.439 16.3551 101.439 14.5171V8.97605H99.4928V14.9645C99.4928 17.0882 100.337 19.4706 103.617 19.4922C105.434 19.4922 106.574 18.6675 107.064 17.6164V19.1957H108.903V8.95449H106.945V14.6842Z" fill="#001963"/>
<path d="M120.738 10.7764C120.365 10.1114 119.817 9.56284 119.152 9.19174C118.488 8.82064 117.734 8.64149 116.974 8.6742C116.273 8.66864 115.578 8.80541 114.932 9.07626C114.285 9.3471 113.7 9.74641 113.212 10.2501C112.723 10.7538 112.342 11.3514 112.09 12.007C111.838 12.6625 111.722 13.3624 111.747 14.0643C111.747 16.9211 113.694 19.4545 116.974 19.4545C117.732 19.4888 118.485 19.312 119.149 18.9439C119.814 18.5757 120.363 18.0305 120.738 17.3685V19.1526H122.684V8.91137H120.738V10.7764ZM120.399 15.6275C120.135 16.2453 119.692 16.7691 119.127 17.1307C118.562 17.4922 117.902 17.6747 117.232 17.6542C116.764 17.6621 116.299 17.576 115.865 17.4008C115.431 17.2257 115.037 16.9651 114.705 16.6344C114.373 16.3038 114.11 15.9098 113.933 15.4758C113.756 15.0417 113.667 14.5765 113.672 14.1075C113.657 13.6361 113.737 13.1666 113.908 12.7272C114.078 12.2877 114.336 11.8875 114.665 11.5505C114.994 11.2136 115.388 10.9469 115.822 10.7666C116.257 10.5863 116.724 10.4961 117.194 10.5015C117.887 10.4769 118.571 10.6651 119.154 11.0408C119.737 11.4164 120.192 11.9617 120.458 12.6036C120.68 13.0783 120.783 13.6 120.759 14.1236C120.741 14.6505 120.615 15.168 120.388 15.6436L120.399 15.6275Z" fill="#001963"/>
<path d="M128.405 10.4745V8.97605H126.572V19.2173H128.518V13.6709C128.518 11.6442 129.475 10.6254 131.309 10.6254H131.438V8.6742C130.812 8.64151 130.19 8.79493 129.65 9.11521C129.111 9.43549 128.678 9.90837 128.405 10.4745Z" fill="#001963"/>
<path d="M142.106 5.29457V10.647C141.711 10.012 141.153 9.49445 140.492 9.14764C139.83 8.80083 139.088 8.63739 138.342 8.67418C135.438 8.67418 133.153 10.8895 133.153 14.0643C133.153 17.0127 135.175 19.4922 138.38 19.4922C140.477 19.4922 141.606 18.4627 142.181 17.4062V19.1903H144.047V5.29457H142.106ZM141.224 16.6138C140.892 16.9547 140.496 17.2257 140.058 17.4108C139.621 17.5959 139.151 17.6915 138.675 17.6919C138.202 17.7052 137.731 17.6217 137.291 17.4464C136.851 17.271 136.451 17.0076 136.115 16.6721C135.78 16.3366 135.517 15.9362 135.341 15.4952C135.166 15.0543 135.082 14.5821 135.094 14.1074C135.092 13.6388 135.181 13.1744 135.358 12.7405C135.535 12.3066 135.795 11.9119 136.124 11.5788C136.452 11.2457 136.843 10.9808 137.274 10.7991C137.705 10.6175 138.168 10.5228 138.635 10.5203C139.103 10.5178 139.566 10.6077 139.999 10.7847C140.432 10.9617 140.825 11.2225 141.158 11.5521C141.49 11.8817 141.754 12.2737 141.935 12.7056C142.117 13.1376 142.211 13.6011 142.214 14.0697C142.23 14.5366 142.151 15.0019 141.981 15.4368C141.811 15.8717 141.553 16.2668 141.224 16.5977V16.6138Z" fill="#001963"/>
<path d="M2.4602 28.9281H10.1416V24.1142H4.80223V5.37022H14.9438V0.556335H2.4602C1.80772 0.556335 1.18195 0.816164 0.720577 1.27866C0.259199 1.74116 0 2.36844 0 3.02251V26.462C0 27.116 0.259199 27.7433 0.720577 28.2058C1.18195 28.6683 1.80772 28.9281 2.4602 28.9281Z" fill="#001963"/>
<path d="M32.1886 0.556335H19.736V5.37899H29.8423V24.1571H19.736V21.174H14.9304V32.5563H19.7414V28.9798H32.1886C32.8423 28.9798 33.4692 28.7195 33.9314 28.2562C34.3936 27.7928 34.6533 27.1644 34.6533 26.5091V3.027C34.6533 2.37174 34.3936 1.74332 33.9314 1.27998C33.4692 0.816637 32.8423 0.556335 32.1886 0.556335Z" fill="#0087ED"/>
<path d="M150 7.44523C150.007 7.88225 149.884 8.31152 149.647 8.67802C149.409 9.04451 149.068 9.3315 148.666 9.5022C148.265 9.6729 147.822 9.71952 147.394 9.63608C146.966 9.55264 146.572 9.34294 146.264 9.03388C145.956 8.72482 145.747 8.33049 145.663 7.90145C145.58 7.47241 145.627 7.02823 145.797 6.62587C145.967 6.2235 146.253 5.8813 146.619 5.64314C146.985 5.40498 147.413 5.28173 147.849 5.28918C148.419 5.28918 148.966 5.51634 149.37 5.92067C149.773 6.32501 150 6.87341 150 7.44523ZM146.171 7.44523C146.168 7.6637 146.209 7.88058 146.29 8.08344C146.37 8.2863 146.491 8.47115 146.643 8.62739C146.795 8.78362 146.977 8.90818 147.177 8.9939C147.378 9.07963 147.593 9.12484 147.811 9.12695C148.03 9.12719 148.246 9.083 148.446 8.99706C148.647 8.91112 148.828 8.78521 148.979 8.62697C149.13 8.46873 149.247 8.28145 149.324 8.07647C149.4 7.87148 149.435 7.65307 149.424 7.43445C149.424 6.99772 149.251 6.57888 148.943 6.27007C148.635 5.96126 148.217 5.78777 147.782 5.78777C147.346 5.78777 146.928 5.96126 146.62 6.27007C146.312 6.57888 146.139 6.99772 146.139 7.43445L146.171 7.44523ZM147.483 8.55021H146.989V6.43189C147.259 6.39091 147.532 6.36929 147.806 6.36721C148.06 6.33901 148.316 6.39791 148.532 6.5343C148.602 6.58606 148.66 6.65437 148.698 6.73328C148.736 6.81219 148.755 6.89931 148.752 6.98707C148.747 7.10911 148.7 7.22572 148.62 7.31777C148.54 7.40983 148.431 7.47187 148.311 7.49374C148.521 7.55843 148.623 7.72552 148.688 8.03276C148.713 8.21912 148.766 8.40073 148.844 8.57177H148.306C148.221 8.40275 148.164 8.22054 148.139 8.03276C148.102 7.81176 147.973 7.70935 147.698 7.70935H147.467L147.483 8.55021ZM147.483 7.3536H147.714C147.989 7.3536 148.209 7.26197 148.209 7.04097C148.209 6.81998 148.064 6.71757 147.757 6.71757C147.666 6.70696 147.574 6.70696 147.483 6.71757V7.3536Z" fill="#001963"/>
</svg>
